<svg width="24" height="24" viewBox="0 0 24 24" fill="none" xmlns="http://www.w3.org/2000/svg">
<path fill-rule="evenodd" clip-rule="evenodd" d="M9.19219 3.15625C8.5565 3.15625 8.26084 3.94693 8.74342 4.36272L8.74492 4.364L15.9394 10.6094H3.5625C3.18323 10.6094 2.875 10.9176 2.875 11.2969V12.7031C2.875 13.0824 3.18323 13.3906 3.5625 13.3906H15.9371L8.7402 19.638L8.73872 19.6393C8.26432 20.0544 8.54901 20.8438 9.18984 20.8438H11.3344C11.4938 20.8438 11.6585 20.7873 11.7881 20.6709L20.6953 12.9445C20.8304 12.827 20.9387 12.6819 21.013 12.519C21.0872 12.356 21.1256 12.179 21.1256 12C21.1256 11.821 21.0872 11.644 21.013 11.481C20.9387 11.3181 20.83 11.1727 20.6949 11.0552L11.8402 3.37004L11.839 3.36895C11.681 3.2328 11.4787 3.15625 11.2664 3.15625H9.19219Z" fill="white"/>
</svg>
