<svg width="24" height="25" viewBox="0 0 24 25" fill="none" xmlns="http://www.w3.org/2000/svg">
<path d="M20.3672 11.9328L11.5125 4.24766C11.4445 4.18906 11.3578 4.15625 11.2664 4.15625H9.19219C9.01875 4.15625 8.93906 4.37187 9.07031 4.48438L17.2781 11.6094H3.5625C3.45937 11.6094 3.375 11.6937 3.375 11.7969V13.2031C3.375 13.3062 3.45937 13.3906 3.5625 13.3906H17.2758L9.06797 20.5156C8.93672 20.6305 9.01641 20.8438 9.18984 20.8438H11.3344C11.3789 20.8438 11.4234 20.8273 11.4562 20.7969L20.3672 13.0672C20.4483 12.9966 20.5134 12.9095 20.558 12.8116C20.6025 12.7138 20.6256 12.6075 20.6256 12.5C20.6256 12.3925 20.6025 12.2862 20.558 12.1884C20.5134 12.0905 20.4483 12.0034 20.3672 11.9328Z" fill="white"/>
</svg>
