<svg width="50" height="50" viewBox="0 0 50 50" fill="none" xmlns="http://www.w3.org/2000/svg">
<path d="M0 4C0 1.79086 1.79086 0 4 0H50V50H4C1.79086 50 0 48.2091 0 46V4Z" fill="#C40656"/>
<path d="M34.2405 19.2691C33.5485 19.5757 32.8145 19.7768 32.063 19.8658C32.8546 19.3921 33.447 18.6468 33.7298 17.7687C32.9857 18.2104 32.1714 18.5214 31.3223 18.6883C30.9676 18.31 30.5389 18.0085 30.0629 17.8025C29.5868 17.5966 29.0736 17.4907 28.5549 17.4912C26.4611 17.4912 24.7634 19.1885 24.7634 21.2827C24.7634 21.5796 24.797 21.8693 24.8618 22.147C21.7106 21.9888 18.917 20.4792 17.0469 18.1851C16.7097 18.7637 16.5325 19.4216 16.5335 20.0914C16.533 20.7156 16.6867 21.3303 16.981 21.8809C17.2752 22.4314 17.7009 22.9007 18.2202 23.2471C17.6183 23.228 17.0295 23.0654 16.503 22.7729C16.5026 22.7887 16.5026 22.8043 16.5026 22.8207C16.5026 24.6571 17.8094 26.1895 19.5436 26.5383C18.9852 26.6894 18.3997 26.7116 17.8314 26.6031C18.3138 28.1091 19.714 29.2056 21.3731 29.2363C20.0301 30.2903 18.3716 30.862 16.6643 30.8595C16.3583 30.8595 16.0566 30.8417 15.7598 30.8064C17.4934 31.9203 19.511 32.5115 21.5716 32.5095C28.5455 32.5095 32.3591 26.7324 32.3591 21.7227C32.3591 21.5585 32.3553 21.3946 32.3481 21.2316C33.0908 20.6954 33.7316 20.0308 34.2405 19.2691Z" fill="white"/>
</svg>
