<svg width="50" height="50" viewBox="0 0 50 50" fill="none" xmlns="http://www.w3.org/2000/svg">
<path d="M0 4C0 1.79086 1.79086 0 4 0H50V50H4C1.79086 50 0 48.2091 0 46V4Z" fill="#C40656"/>
<path d="M35.4399 17.6223L32.2711 32.566C32.0319 33.6205 31.4086 33.883 30.5229 33.3865L25.6944 29.8285L23.3649 32.0695C23.1069 32.3275 22.8916 32.5428 22.3944 32.5428L22.7416 27.6258L31.6899 19.54C32.0791 19.1935 31.6051 19.0008 31.0854 19.348L20.0229 26.314L15.2604 24.823C14.2246 24.4998 14.2059 23.7873 15.4764 23.29L34.1041 16.1133C34.9666 15.79 35.7211 16.3053 35.4399 17.623V17.6223Z" fill="white"/>
</svg>
