<svg width="40" height="41" viewBox="0 0 40 41" fill="none" xmlns="http://www.w3.org/2000/svg">
<rect y="0.5" width="40" height="40" rx="4" fill="white"/>
<path d="M28.3672 20.4328L19.5125 12.7477C19.4445 12.6891 19.3578 12.6562 19.2664 12.6562H17.1922C17.0188 12.6562 16.9391 12.8719 17.0703 12.9844L25.2781 20.1094H11.5625C11.4594 20.1094 11.375 20.1937 11.375 20.2969V21.7031C11.375 21.8062 11.4594 21.8906 11.5625 21.8906H25.2758L17.068 29.0156C16.9367 29.1305 17.0164 29.3438 17.1898 29.3438H19.3344C19.3789 29.3438 19.4234 29.3273 19.4562 29.2969L28.3672 21.5672C28.4483 21.4966 28.5134 21.4095 28.558 21.3116C28.6025 21.2138 28.6256 21.1075 28.6256 21C28.6256 20.8925 28.6025 20.7862 28.558 20.6884C28.5134 20.5905 28.4483 20.5034 28.3672 20.4328Z" fill="#0C0C0C"/>
</svg>
