<svg width="140" height="50" viewBox="0 0 140 50" fill="none" xmlns="http://www.w3.org/2000/svg">
<path fill-rule="evenodd" clip-rule="evenodd" d="M34.5611 38.378L27.6361 42.2407C26.8662 42.6701 25.9178 42.6701 25.148 42.2407L11.227 34.4758C10.4572 34.0463 9.98298 33.2528 9.98298 32.394V18.9657L11.3151 21.1949C12.1937 20.705 12.5393 19.6659 12.1557 18.7855L9.39918 14.1729C8.71733 14.8994 8.32422 15.8548 8.32422 16.8642V32.394C8.32422 33.8253 9.11459 35.148 10.3977 35.8637L24.3186 43.6285C25.6016 44.3443 27.1824 44.3443 28.4655 43.6285L42.3192 35.9011L42.2424 35.7727L42.2446 35.7714L39.9224 31.8854C39.9224 31.8854 41.1475 33.9357 34.5611 38.378Z" fill="url(#paint0_linear_222_514)"/>
<path fill-rule="evenodd" clip-rule="evenodd" d="M42.4801 13.5516C43.7631 14.2674 44.5536 15.59 44.5536 17.0213V32.5511C44.5536 33.5714 44.1519 34.5365 43.4565 35.2659L42.5569 33.7605L42.5659 33.7455L40.8334 30.8464C40.2837 29.9266 40.6099 28.7505 41.5619 28.2194L42.8948 30.4497V17.0213C42.8948 16.1625 42.4205 15.3689 41.6507 14.9395L27.7298 7.17458C26.96 6.74517 26.0115 6.74517 25.2416 7.17458L18.3078 11.0422C11.731 15.4805 12.9552 17.529 12.9552 17.529L11.386 14.9032L11.3723 14.9108L10.543 13.5229L24.4122 5.78676C25.6954 5.07108 27.2762 5.07108 28.5592 5.78676L42.4801 13.5516Z" fill="url(#paint1_linear_222_514)"/>
<path fill-rule="evenodd" clip-rule="evenodd" d="M24.9306 35.2295C25.7474 35.6811 26.7506 35.6811 27.5674 35.2295L31.1105 33.2703C31.7465 32.9186 31.967 32.1352 31.6029 31.5207C31.2388 30.9062 30.4281 30.6932 29.792 31.0449L26.249 33.0041L19.1716 29.0905V25.7018L16.5176 21.5792V29.0905C16.5176 30.01 17.0272 30.8591 17.8532 31.3158L24.9306 35.2295ZM16.6308 20.5412L19.1716 24.488V22.0614L17.4264 19.3505C17.0496 19.6682 16.7745 20.0817 16.6308 20.5412ZM17.9754 18.9895L24.9306 15.1434C25.7474 14.6918 26.7506 14.6918 27.5674 15.1434L31.1105 17.1026C31.7465 17.4543 31.967 18.2376 31.6029 18.8522C31.2388 19.4667 30.4281 19.6797 29.792 19.328L26.249 17.3687L19.378 21.1682L17.9754 18.9895Z" fill="#F1F2F3"/>
<path d="M61.4025 31.5253C63.4528 31.5253 65.2839 30.8522 66.5178 29.5446L65.5822 28.6407C64.4477 29.7753 63.0545 30.2561 61.4619 30.2561C58.098 30.2561 55.5703 27.8715 55.5703 24.6791C55.5703 21.4869 58.098 19.1022 61.4619 19.1022C63.0545 19.1022 64.4477 19.583 65.5822 20.6984L66.5178 19.7946C65.2839 18.4869 63.4528 17.833 61.4223 17.833C57.2223 17.833 54.1172 20.7369 54.1172 24.6791C54.1172 28.6215 57.2223 31.5253 61.4025 31.5253ZM69.3231 31.4099H77.0265V30.2561H70.7564V20.5446H69.3231V31.4099ZM86.5972 20.5446H85.1238L81.2622 26.5446L77.4006 20.5446H75.8679L80.526 27.833V31.4099H81.9391V27.8715L86.5972 20.5446ZM100.862 31.4099L100.842 20.5446H99.6085L94.8509 28.333L90.074 20.5446H88.8396V31.4099H90.2131V23.1599L94.5125 30.0446H95.1695L99.469 23.0446V31.4099H100.862ZM106.485 30.2561V26.4676H112.297V25.333H106.485V21.6984H112.994V20.5446H105.052V31.4099H113.233V30.2561H106.485ZM124.587 20.5446V29.0253L117.52 20.5446H116.326V31.4099H117.759V22.9291L124.826 31.4099H126.02V20.5446H124.587ZM131.639 30.2561V26.4676H137.451V25.333H131.639V21.6984H138.148V20.5446H130.205V31.4099H138.387V30.2561H131.639Z" fill="white" stroke="white"/>
<defs>
<linearGradient id="paint0_linear_222_514" x1="0.550975" y1="7.59555" x2="45.683" y2="13.5816" gradientUnits="userSpaceOnUse">
<stop stop-color="#00B3FF"/>
<stop offset="0.532103" stop-color="#52226F"/>
<stop offset="1" stop-color="#C40656"/>
</linearGradient>
<linearGradient id="paint1_linear_222_514" x1="2.76616" y1="-1.33242" x2="47.9193" y2="4.65451" gradientUnits="userSpaceOnUse">
<stop stop-color="#00B3FF"/>
<stop offset="0.532103" stop-color="#52226F"/>
<stop offset="1" stop-color="#C40656"/>
</linearGradient>
</defs>
</svg>
