<svg width="50" height="50" viewBox="0 0 50 50" fill="none" xmlns="http://www.w3.org/2000/svg">
<path d="M0 4C0 1.79086 1.79086 0 4 0H50V50H4C1.79086 50 0 48.2091 0 46V4Z" fill="#C40656"/>
<g clip-path="url(#clip0_193_472)">
<path d="M23.9991 20.1925C21.339 20.1925 19.1921 22.3394 19.1921 24.9995C19.1921 27.6597 21.339 29.8066 23.9991 29.8066C26.6593 29.8066 28.8062 27.6597 28.8062 24.9995C28.8062 22.3394 26.6593 20.1925 23.9991 20.1925ZM23.9991 28.1237C22.2788 28.1237 20.8749 26.7198 20.8749 24.9995C20.8749 23.2792 22.2788 21.8753 23.9991 21.8753C25.7194 21.8753 27.1234 23.2792 27.1234 24.9995C27.1234 26.7198 25.7194 28.1237 23.9991 28.1237ZM29.003 18.8753C28.3819 18.8753 27.8804 19.3769 27.8804 19.998C27.8804 20.6191 28.3819 21.1206 29.003 21.1206C29.6241 21.1206 30.1257 20.6214 30.1257 19.998C30.1259 19.8505 30.097 19.7044 30.0406 19.5681C29.9843 19.4318 29.9016 19.308 29.7973 19.2037C29.693 19.0994 29.5692 19.0167 29.4329 18.9604C29.2966 18.904 29.1505 18.8751 29.003 18.8753ZM33.3694 24.9995C33.3694 23.7058 33.3812 22.4237 33.3085 21.1323C33.2359 19.6323 32.8937 18.3011 31.7968 17.2042C30.6976 16.105 29.3687 15.7652 27.8687 15.6925C26.5749 15.6198 25.2929 15.6316 24.0015 15.6316C22.7077 15.6316 21.4257 15.6198 20.1343 15.6925C18.6343 15.7652 17.303 16.1073 16.2062 17.2042C15.1069 18.3034 14.7671 19.6323 14.6944 21.1323C14.6218 22.4261 14.6335 23.7081 14.6335 24.9995C14.6335 26.2909 14.6218 27.5753 14.6944 28.8667C14.7671 30.3667 15.1093 31.698 16.2062 32.7948C17.3054 33.8941 18.6343 34.2339 20.1343 34.3066C21.428 34.3792 22.7101 34.3675 24.0015 34.3675C25.2952 34.3675 26.5773 34.3792 27.8687 34.3066C29.3687 34.2339 30.6999 33.8917 31.7968 32.7948C32.896 31.6956 33.2359 30.3667 33.3085 28.8667C33.3835 27.5753 33.3694 26.2933 33.3694 24.9995ZM31.3069 30.5261C31.1359 30.9527 30.9296 31.2714 30.5991 31.5995C30.2687 31.93 29.9523 32.1362 29.5257 32.3073C28.2929 32.7972 25.3655 32.687 23.9991 32.687C22.6327 32.687 19.703 32.7972 18.4702 32.3097C18.0437 32.1386 17.7249 31.9323 17.3968 31.6019C17.0663 31.2714 16.8601 30.955 16.689 30.5284C16.2015 29.2933 16.3116 26.3659 16.3116 24.9995C16.3116 23.6331 16.2015 20.7034 16.689 19.4706C16.8601 19.0441 17.0663 18.7253 17.3968 18.3972C17.7273 18.0691 18.0437 17.8605 18.4702 17.6894C19.703 17.2019 22.6327 17.312 23.9991 17.312C25.3655 17.312 28.2952 17.2019 29.528 17.6894C29.9546 17.8605 30.2734 18.0667 30.6015 18.3972C30.9319 18.7277 31.1382 19.0441 31.3093 19.4706C31.7968 20.7034 31.6866 23.6331 31.6866 24.9995C31.6866 26.3659 31.7968 29.2933 31.3069 30.5261Z" fill="white"/>
</g>
<defs>
<clipPath id="clip0_193_472">
<rect width="24" height="24" fill="white" transform="translate(13 13)"/>
</clipPath>
</defs>
</svg>
