<svg width="50" height="50" viewBox="0 0 50 50" fill="none" xmlns="http://www.w3.org/2000/svg">
<path d="M0 4C0 1.79086 1.79086 0 4 0H50V50H4C1.79086 50 0 48.2091 0 46V4Z" fill="#C40656"/>
<g clip-path="url(#clip0_193_465)">
<path d="M26.8204 17.2598C26.6218 17.6155 26.4448 17.9828 26.2904 18.3598C24.7732 18.1198 23.2276 18.1198 21.7104 18.3598C21.556 17.9828 21.379 17.6155 21.1804 17.2598C19.7512 17.504 18.3618 17.9413 17.0504 18.5598C14.7053 21.9441 13.6418 26.0527 14.0504 30.1498C15.5786 31.2986 17.2939 32.1748 19.1204 32.7398C19.5363 32.1904 19.9075 31.6085 20.2304 30.9998C19.6345 30.78 19.0617 30.502 18.5204 30.1698C18.6689 30.071 18.8093 29.9606 18.9404 29.8398C20.5189 30.6001 22.2484 30.9949 24.0004 30.9949C25.7524 30.9949 27.4819 30.6001 29.0604 29.8398C29.2004 29.9598 29.3404 30.0698 29.4804 30.1698C28.9362 30.4994 28.364 30.7805 27.7704 31.0098C28.0799 31.6323 28.4412 32.2277 28.8504 32.7898C30.6747 32.2268 32.3869 31.3504 33.9104 30.1998C34.3288 26.102 33.2644 21.9899 30.9104 18.6098C29.6137 17.9785 28.2381 17.5244 26.8204 17.2598ZM20.6804 27.8098C20.18 27.7738 19.7129 27.5455 19.3773 27.1725C19.0417 26.7996 18.8636 26.3112 18.8804 25.8098C18.8611 25.3077 19.0383 24.8178 19.3744 24.4444C19.7105 24.0709 20.1791 23.8432 20.6804 23.8098C21.1817 23.8432 21.6503 24.0709 21.9864 24.4444C22.3225 24.8178 22.4997 25.3077 22.4804 25.8098C22.4997 26.3118 22.3225 26.8017 21.9864 27.1752C21.6503 27.5486 21.1817 27.7763 20.6804 27.8098ZM27.3204 27.8098C26.82 27.7738 26.3529 27.5455 26.0173 27.1725C25.6817 26.7996 25.5036 26.3112 25.5204 25.8098C25.5011 25.3077 25.6783 24.8178 26.0144 24.4444C26.3505 24.0709 26.8191 23.8432 27.3204 23.8098C27.8227 23.8407 28.2927 24.0677 28.6294 24.4417C28.966 24.8158 29.1423 25.307 29.1204 25.8098C29.1423 26.3125 28.966 26.8038 28.6294 27.1778C28.2927 27.5519 27.8227 27.7788 27.3204 27.8098Z" fill="white"/>
</g>
<defs>
<clipPath id="clip0_193_465">
<rect width="24" height="24" fill="white" transform="translate(13 13)"/>
</clipPath>
</defs>
</svg>
