<svg width="50" height="50" viewBox="0 0 50 50" fill="none" xmlns="http://www.w3.org/2000/svg">
<path d="M0 4C0 1.79086 1.79086 0 4 0H50V50H4C1.79086 50 0 48.2091 0 46V4Z" fill="#C40656"/>
<g clip-path="url(#clip0_193_458)">
<path d="M33.5991 25.1205C33.5991 23.9205 32.6391 22.9605 31.4391 23.0805C30.9591 23.0805 30.3591 23.3205 29.9991 23.6805C28.3191 22.6005 26.3991 21.8805 24.3591 21.8805L25.3191 17.3205L28.4391 18.0405C28.4391 18.8805 29.1591 19.4805 29.9991 19.4805C30.8391 19.4805 31.4391 18.7605 31.4391 17.9205C31.4391 17.0805 30.7191 16.4805 29.8791 16.4805C29.2791 16.4805 28.7991 16.8405 28.5591 17.3205L25.1991 16.4805H24.9591C24.8391 16.4805 24.8391 16.6005 24.8391 16.7205L23.6391 21.8805C21.5991 21.8805 19.6791 22.4805 17.9991 23.6805C17.1591 22.8405 15.8391 22.8405 14.9991 23.6805C14.1591 24.5205 14.1591 25.8405 14.9991 26.6805C15.1191 26.8005 15.3591 27.0405 15.5991 27.0405V27.6405C15.5991 30.8805 19.3191 33.5205 23.9991 33.5205C28.6791 33.5205 32.3991 30.8805 32.3991 27.6405V27.0405C33.1191 26.6805 33.5991 25.9605 33.5991 25.1205ZM19.1991 26.6805C19.1991 25.8405 19.9191 25.2405 20.6391 25.2405C21.4791 25.2405 22.0791 25.9605 22.0791 26.6805C22.0791 27.4005 21.3591 28.1205 20.6391 28.1205C19.7991 28.1205 19.1991 27.5205 19.1991 26.6805ZM27.5991 30.6405C26.5191 31.3605 25.3191 31.8405 23.9991 31.7205C22.6791 31.7205 21.4791 31.3605 20.3991 30.6405C20.2791 30.5205 20.2791 30.2805 20.3991 30.0405C20.5191 29.9205 20.7591 29.9205 20.8791 30.0405C21.7191 30.6405 22.7991 31.0005 23.8791 30.8805C24.9591 31.0005 26.0391 30.6405 26.8791 30.0405C26.9991 29.9205 27.2391 29.9205 27.4791 30.0405C27.7191 30.1605 27.7191 30.4005 27.5991 30.6405ZM27.2391 28.1205C26.3991 28.1205 25.7991 27.4005 25.7991 26.6805C25.7991 25.9605 26.5191 25.2405 27.2391 25.2405C28.0791 25.2405 28.6791 25.9605 28.6791 26.6805C28.7991 27.5205 28.0791 28.1205 27.2391 28.1205Z" fill="white"/>
</g>
<defs>
<clipPath id="clip0_193_458">
<rect width="24" height="24" fill="white" transform="translate(13 13)"/>
</clipPath>
</defs>
</svg>
