<svg width="40" height="39" viewBox="0 0 40 39" fill="none" xmlns="http://www.w3.org/2000/svg">
<path d="M18.8004 8.91445C18.8004 8.75532 18.8636 8.60271 18.9761 8.49019C19.0886 8.37767 19.2413 8.31445 19.4004 8.31445H23.0004C23.1595 8.31445 23.3121 8.37767 23.4247 8.49019C23.5372 8.60271 23.6004 8.75532 23.6004 8.91445V10.1145C23.6004 10.2736 23.5372 10.4262 23.4247 10.5387C23.3121 10.6512 23.1595 10.7145 23.0004 10.7145H20.0004V11.9145C21.5917 11.9145 23.1178 12.5466 24.243 13.6718C25.3682 14.797 26.0004 16.3232 26.0004 17.9145V19.1145H27.2004C27.8369 19.1145 28.4474 19.3673 28.8974 19.8174C29.3475 20.2675 29.6004 20.8779 29.6004 21.5145V26.3145C29.6004 26.6327 29.474 26.9379 29.2489 27.163C29.0239 27.388 28.7187 27.5145 28.4004 27.5145H11.6004C11.2821 27.5145 10.9769 27.388 10.7519 27.163C10.5268 26.9379 10.4004 26.6327 10.4004 26.3145V21.5145C10.4004 20.8779 10.6532 20.2675 11.1033 19.8174C11.5534 19.3673 12.1639 19.1145 12.8004 19.1145H14.0004V17.9145C14.0006 16.5314 14.4783 15.1908 15.353 14.1194C16.2276 13.048 17.4454 12.3115 18.8004 12.0345V8.91445ZM27.2004 20.3145H25.4004C25.2413 20.3145 25.0886 20.2512 24.9761 20.1387C24.8636 20.0262 24.8004 19.8736 24.8004 19.7145V17.9145C24.8004 16.6414 24.2947 15.4205 23.3945 14.5203C22.4943 13.6202 21.2734 13.1145 20.0004 13.1145C18.7274 13.1145 17.5065 13.6202 16.6063 14.5203C15.7061 15.4205 15.2004 16.6414 15.2004 17.9145V19.7145C15.2004 19.8736 15.1372 20.0262 15.0247 20.1387C14.9121 20.2512 14.7595 20.3145 14.6004 20.3145H12.8004C12.4821 20.3145 12.1769 20.4409 11.9519 20.6659C11.7268 20.891 11.6004 21.1962 11.6004 21.5145V26.3145H17.6004V23.9145C17.6004 23.5962 17.7268 23.291 17.9519 23.0659C18.1769 22.8409 18.4821 22.7145 18.8004 22.7145H21.2004C21.5187 22.7145 21.8239 22.8409 22.0489 23.0659C22.274 23.291 22.4004 23.5962 22.4004 23.9145V26.3145H28.4004V21.5145C28.4004 21.1962 28.274 20.891 28.0489 20.6659C27.8239 20.4409 27.5187 20.3145 27.2004 20.3145ZM15.2004 22.1145C15.2004 21.9553 15.1372 21.8027 15.0247 21.6902C14.9121 21.5777 14.7595 21.5145 14.6004 21.5145C14.4413 21.5145 14.2886 21.5777 14.1761 21.6902C14.0636 21.8027 14.0004 21.9553 14.0004 22.1145V24.5145C14.0004 24.6736 14.0636 24.8262 14.1761 24.9387C14.2886 25.0512 14.4413 25.1145 14.6004 25.1145C14.7595 25.1145 14.9121 25.0512 15.0247 24.9387C15.1372 24.8262 15.2004 24.6736 15.2004 24.5145V22.1145ZM26.0004 22.1145C26.0004 21.9553 25.9372 21.8027 25.8247 21.6902C25.7121 21.5777 25.5595 21.5145 25.4004 21.5145C25.2413 21.5145 25.0886 21.5777 24.9761 21.6902C24.8636 21.8027 24.8004 21.9553 24.8004 22.1145V24.5145C24.8004 24.6736 24.8636 24.8262 24.9761 24.9387C25.0886 25.0512 25.2413 25.1145 25.4004 25.1145C25.5595 25.1145 25.7121 25.0512 25.8247 24.9387C25.9372 24.8262 26.0004 24.6736 26.0004 24.5145V22.1145ZM18.2004 16.7145C18.0413 16.7145 17.8886 16.7777 17.7761 16.8902C17.6636 17.0027 17.6004 17.1553 17.6004 17.3145V19.7145C17.6004 19.8736 17.6636 20.0262 17.7761 20.1387C17.8886 20.2512 18.0413 20.3145 18.2004 20.3145C18.3595 20.3145 18.5121 20.2512 18.6247 20.1387C18.7372 20.0262 18.8004 19.8736 18.8004 19.7145V17.3145C18.8004 17.1553 18.7372 17.0027 18.6247 16.8902C18.5121 16.7777 18.3595 16.7145 18.2004 16.7145ZM22.4004 17.3145C22.4004 17.1553 22.3372 17.0027 22.2247 16.8902C22.1121 16.7777 21.9595 16.7145 21.8004 16.7145C21.6413 16.7145 21.4886 16.7777 21.3761 16.8902C21.2636 17.0027 21.2004 17.1553 21.2004 17.3145V19.7145C21.2004 19.8736 21.2636 20.0262 21.3761 20.1387C21.4886 20.2512 21.6413 20.3145 21.8004 20.3145C21.9595 20.3145 22.1121 20.2512 22.2247 20.1387C22.3372 20.0262 22.4004 19.8736 22.4004 19.7145V17.3145ZM18.8004 26.3145H21.2004V23.9145H18.8004V26.3145Z" fill="white"/>
<path d="M18.5573 2.84589C19.456 2.353 20.544 2.353 21.4427 2.84589L34.7632 10.152C35.7236 10.6787 36.3205 11.687 36.3205 12.7823V27.0458C36.3205 28.1412 35.7236 29.1494 34.7632 29.6762L21.4427 36.9822C20.544 37.4751 19.456 37.4751 18.5573 36.9822L5.2368 29.6762C4.27644 29.1494 3.67949 28.1412 3.67949 27.0458V12.7823C3.67949 11.687 4.27644 10.6787 5.2368 10.152L18.5573 2.84589Z" stroke="url(#paint0_linear_295_411)" stroke-opacity="0.5" stroke-width="2"/>
<defs>
<linearGradient id="paint0_linear_295_411" x1="-9.14634" y1="-7.41927" x2="44.0845" y2="-0.862464" gradientUnits="userSpaceOnUse">
<stop stop-color="#00B3FF"/>
<stop offset="0.532103" stop-color="#52226F"/>
<stop offset="1" stop-color="#C40656"/>
</linearGradient>
</defs>
</svg>
