<svg width="268" height="400" viewBox="0 0 268 400" fill="none" xmlns="http://www.w3.org/2000/svg">
<path d="M137.755 125.919C138.456 120.441 143.464 116.568 148.943 117.268L258.055 131.218C263.533 131.919 267.406 136.928 266.706 142.406L250.219 271.356C249.519 276.834 244.51 280.708 239.032 280.007L129.92 266.057C124.442 265.357 120.568 260.348 121.269 254.87L137.755 125.919Z" fill="url(#paint0_linear_339_541)"/>
<path d="M198.051 171.253C205.681 172.229 211.178 174.619 214.541 178.424C217.931 182.233 219.235 187.197 218.452 193.318C218.102 196.062 217.367 198.646 216.248 201.07C215.157 203.496 213.593 205.584 211.556 207.332C209.547 209.083 207 210.348 203.916 211.125C200.86 211.906 197.19 212.022 192.909 211.475L188.339 210.891L185.786 230.858L169.525 228.779L177.22 168.59L198.051 171.253ZM196.002 184.339L191.803 183.802L190.034 197.634L193.245 198.045C194.645 198.224 195.978 198.157 197.246 197.845C198.516 197.505 199.577 196.846 200.427 195.867C201.309 194.864 201.865 193.457 202.097 191.645C202.339 189.751 201.973 188.142 200.999 186.818C200.028 185.467 198.362 184.64 196.002 184.339Z" fill="white"/>
<path d="M3.75947 270.139C1.68317 265.022 4.14871 259.19 9.26641 257.114L111.197 215.759C116.315 213.683 122.147 216.149 124.223 221.266L173.096 341.73C175.172 346.847 172.707 352.679 167.589 354.756L65.6585 396.11C60.5408 398.186 54.7089 395.72 52.6326 390.603L3.75947 270.139Z" fill="url(#paint1_linear_339_541)"/>
<path d="M87.9182 289.843C86.1235 290.571 84.677 291.606 83.5789 292.947C82.4704 294.263 81.7075 295.841 81.2901 297.683C80.8726 299.524 80.816 301.593 81.1201 303.888C81.4395 306.147 82.1297 308.584 83.1908 311.2C84.6263 314.738 86.2816 317.53 88.1568 319.576C90.032 321.622 92.1294 322.891 94.4491 323.383C96.7945 323.865 99.3517 323.544 102.121 322.421C104.633 321.401 106.903 320.077 108.93 318.449C110.982 316.81 112.99 315.025 114.954 313.094L120.165 325.939C118.125 328.051 115.897 329.88 113.479 331.429C111.087 332.966 108.43 334.328 105.507 335.514C99.4047 337.99 93.9161 338.813 89.0411 337.984C84.1813 337.119 79.9546 334.907 76.361 331.349C72.793 327.78 69.8544 323.15 67.5451 317.458C65.8183 313.201 64.8269 309.065 64.5708 305.048C64.3404 301.021 64.8536 297.245 66.1106 293.719C67.3571 290.167 69.3865 287 72.1988 284.217C75.0263 281.397 78.6323 279.098 83.0166 277.32C85.7344 276.217 88.7232 275.378 91.9831 274.802C95.2582 274.189 98.6124 273.993 102.046 274.213L102.245 288.061C99.7984 287.919 97.3887 287.941 95.0158 288.128C92.6429 288.314 90.2771 288.886 87.9182 289.843Z" fill="white"/>
<path d="M12.7182 32.1877C11.7693 26.747 15.4106 21.5672 20.8513 20.6182L129.215 1.71812C134.656 0.769187 139.836 4.4105 140.785 9.85121L163.121 137.918C164.07 143.359 160.429 148.538 154.988 149.487L46.6242 168.388C41.1835 169.336 36.0036 165.695 35.0547 160.254L12.7182 32.1877Z" fill="url(#paint2_linear_339_541)"/>
<path d="M118.772 113.17L102.54 116.001L98.2898 91.6327L79.5228 94.9059L83.773 119.274L67.541 122.105L57.1152 62.3291L73.3472 59.498L77.2123 81.6586L95.9793 78.3854L92.1142 56.2248L108.346 53.3937L118.772 113.17Z" fill="white"/>
<defs>
<linearGradient id="paint0_linear_339_541" x1="120" y1="81.5" x2="247.82" y2="274.498" gradientUnits="userSpaceOnUse">
<stop stop-color="#00B3FF"/>
<stop offset="0.613995" stop-color="#52226F"/>
<stop offset="1" stop-color="#C40656"/>
</linearGradient>
<linearGradient id="paint1_linear_339_541" x1="-39.9117" y1="241.567" x2="172.546" y2="345.645" gradientUnits="userSpaceOnUse">
<stop stop-color="#00B3FF"/>
<stop offset="0.588836" stop-color="#52226F"/>
<stop offset="1" stop-color="#C40656"/>
</linearGradient>
<linearGradient id="paint2_linear_339_541" x1="-23.9355" y1="-4.96169" x2="161.757" y2="141.629" gradientUnits="userSpaceOnUse">
<stop stop-color="#00B3FF"/>
<stop offset="0.613314" stop-color="#52226F"/>
<stop offset="1" stop-color="#C40656"/>
</linearGradient>
</defs>
</svg>
