<svg width="40" height="38" viewBox="0 0 40 38" fill="none" xmlns="http://www.w3.org/2000/svg">
<path d="M21.4286 20.3286L22.3286 19.4286L27.2143 24.3143V20.0714H28.5V26.5H22.0714V25.2143H26.3143L21.4286 20.3286ZM17.5714 20.3286L16.6714 19.4286L11.7857 24.3143V20.0714H10.5V26.5H16.9286V25.2143H12.6857L17.5714 20.3286ZM20.1429 17.5H18.8571V10.9429L15.9 13.9L15 13L19.5 8.5L24 13L23.1 13.9L20.1429 10.9429V17.5Z" fill="white"/>
<path d="M18.5573 1.93183C19.456 1.43894 20.544 1.43894 21.4427 1.93183L34.7632 9.2379C35.7236 9.76464 36.3205 10.7729 36.3205 11.8682V26.1318C36.3205 27.2271 35.7236 28.2354 34.7632 28.7621L21.4427 36.0682C20.544 36.5611 19.456 36.5611 18.5573 36.0682L5.2368 28.7621C4.27644 28.2354 3.67949 27.2271 3.67949 26.1318V11.8682C3.67949 10.7729 4.27644 9.76464 5.2368 9.2379L18.5573 1.93183Z" stroke="url(#paint0_linear_295_407)" stroke-opacity="0.5" stroke-width="2"/>
<defs>
<linearGradient id="paint0_linear_295_407" x1="-9.14634" y1="-8.33333" x2="44.0845" y2="-1.77653" gradientUnits="userSpaceOnUse">
<stop stop-color="#00B3FF"/>
<stop offset="0.532103" stop-color="#52226F"/>
<stop offset="1" stop-color="#C40656"/>
</linearGradient>
</defs>
</svg>
