<svg width="40" height="38" viewBox="0 0 40 38" fill="none" xmlns="http://www.w3.org/2000/svg">
<path d="M20 8L11 12V18C11 23.55 14.84 28.74 20 30C25.16 28.74 29 23.55 29 18V12L20 8ZM20 18.99H27C26.47 23.11 23.72 26.78 20 27.93V19H13V13.3L20 10.19V18.99Z" fill="white"/>
<path d="M21.4427 1.93183L34.7632 9.2379C35.7236 9.76464 36.3205 10.7729 36.3205 11.8682V26.1318C36.3205 27.2271 35.7236 28.2354 34.7632 28.7621L21.4427 36.0682C20.544 36.5611 19.456 36.5611 18.5573 36.0682L5.2368 28.7621C4.27644 28.2354 3.67949 27.2271 3.67949 26.1318V11.8682C3.67949 10.7729 4.27644 9.76464 5.2368 9.2379L18.5573 1.93183C19.456 1.43894 20.544 1.43894 21.4427 1.93183Z" stroke="url(#paint0_linear_295_393)" stroke-opacity="0.5" stroke-width="2"/>
<defs>
<linearGradient id="paint0_linear_295_393" x1="-9.14634" y1="-8.33333" x2="44.0845" y2="-1.77653" gradientUnits="userSpaceOnUse">
<stop stop-color="#00B3FF"/>
<stop offset="0.532103" stop-color="#52226F"/>
<stop offset="1" stop-color="#C40656"/>
</linearGradient>
</defs>
</svg>
