<svg width="40" height="39" viewBox="0 0 40 39" fill="none" xmlns="http://www.w3.org/2000/svg">
<ellipse cx="20.0004" cy="18.9998" rx="2.2973" ry="2.17949" fill="white"/>
<path d="M18.4268 9.63556L19.9395 8.78223L27.5892 13.0974L25.4036 14.3303L19.9462 11.2518L18.8534 11.8682L25.4036 15.5632L29.7748 13.0974L19.9395 7.54932L15.5684 10.0151L16.1489 10.3426L17.9877 9.30529L18.4268 9.63556Z" fill="white"/>
<path d="M21.4432 9.63056L19.9368 8.78075L12.2872 13.0959L14.4728 14.3288L19.8432 11.2994L20.936 11.9158L14.4728 15.5618L10.1016 13.0959L19.9368 7.54785L24.308 10.0137L23.2542 10.6081L21.4823 9.60857L21.4432 9.63056Z" fill="white"/>
<path d="M21.5732 28.3644L20.0605 29.2178L12.4108 24.9026L14.5964 23.6697L20.0538 26.7482L21.1466 26.1318L14.5964 22.4368L10.2252 24.9026L20.0605 30.4507L24.4316 27.9849L23.8511 27.6574L22.0123 28.6947L21.5732 28.3644Z" fill="white"/>
<path d="M18.5568 28.3694L20.0632 29.2192L27.7128 24.9041L25.5272 23.6712L20.1568 26.7006L19.064 26.0842L25.5272 22.4382L29.8984 24.9041L20.0632 30.4521L15.692 27.9863L16.7458 27.3919L18.5177 28.3914L18.5568 28.3694Z" fill="white"/>
<path d="M18.5573 1.93183C19.456 1.43894 20.544 1.43894 21.4427 1.93183L34.7632 9.2379C35.7236 9.76464 36.3205 10.7729 36.3205 11.8682V26.1318C36.3205 27.2271 35.7236 28.2354 34.7632 28.7621L21.4427 36.0682C20.544 36.5611 19.456 36.5611 18.5573 36.0682L5.2368 28.7621C4.27644 28.2354 3.67949 27.2271 3.67949 26.1318V11.8682C3.67949 10.7729 4.27644 9.76464 5.2368 9.2379L18.5573 1.93183Z" stroke="url(#paint0_linear_295_397)" stroke-opacity="0.5" stroke-width="2"/>
<defs>
<linearGradient id="paint0_linear_295_397" x1="-9.14634" y1="-8.33333" x2="44.0845" y2="-1.77653" gradientUnits="userSpaceOnUse">
<stop stop-color="#00B3FF"/>
<stop offset="0.532103" stop-color="#52226F"/>
<stop offset="1" stop-color="#C40656"/>
</linearGradient>
</defs>
</svg>
