<svg width="140" height="50" viewBox="0 0 140 50" fill="none" xmlns="http://www.w3.org/2000/svg">
<path fill-rule="evenodd" clip-rule="evenodd" d="M34.5611 38.3775L27.6361 42.2402C26.8662 42.6696 25.9178 42.6696 25.148 42.2402L11.227 34.4753C10.4572 34.0459 9.98298 33.2524 9.98298 32.3935V18.9652L11.3151 21.1945C12.1937 20.7045 12.5393 19.6654 12.1557 18.785L9.39918 14.1724C8.71733 14.8989 8.32422 15.8543 8.32422 16.8637V32.3935C8.32422 33.8249 9.11459 35.1475 10.3977 35.8632L24.3186 43.628C25.6016 44.3438 27.1824 44.3438 28.4655 43.628L42.3192 35.9006L42.2424 35.7722L42.2446 35.771L39.9224 31.8849C39.9224 31.8849 41.1475 33.9352 34.5611 38.3775Z" fill="url(#paint0_linear_215_427)"/>
<path fill-rule="evenodd" clip-rule="evenodd" d="M42.4801 13.5521C43.7631 14.2678 44.5536 15.5905 44.5536 17.0218V32.5516C44.5536 33.5719 44.1519 34.537 43.4565 35.2663L42.5569 33.761L42.5659 33.746L40.8334 30.8469C40.2837 29.9271 40.6099 28.751 41.5619 28.2199L42.8948 30.4502V17.0218C42.8948 16.163 42.4205 15.3694 41.6507 14.94L27.7298 7.17507C26.96 6.74566 26.0115 6.74566 25.2416 7.17507L18.3078 11.0427C11.731 15.481 12.9552 17.5295 12.9552 17.5295L11.386 14.9037L11.3723 14.9113L10.543 13.5233L24.4122 5.78725C25.6954 5.07157 27.2762 5.07157 28.5592 5.78725L42.4801 13.5521Z" fill="url(#paint1_linear_215_427)"/>
<path fill-rule="evenodd" clip-rule="evenodd" d="M24.9306 35.229C25.7474 35.6806 26.7506 35.6806 27.5674 35.229L31.1105 33.2698C31.7465 32.9181 31.967 32.1348 31.6029 31.5203C31.2388 30.9057 30.4281 30.6927 29.792 31.0444L26.249 33.0036L19.1716 29.09V25.7013L16.5176 21.5787V29.09C16.5176 30.0095 17.0272 30.8586 17.8532 31.3153L24.9306 35.229ZM16.6308 20.5408L19.1716 24.4875V22.0609L17.4264 19.35C17.0496 19.6677 16.7745 20.0812 16.6308 20.5408ZM17.9754 18.989L24.9306 15.1429C25.7474 14.6913 26.7506 14.6913 27.5674 15.1429L31.1105 17.1021C31.7465 17.4538 31.967 18.2371 31.6029 18.8517C31.2388 19.4662 30.4281 19.6792 29.792 19.3275L26.249 17.3683L19.378 21.1678L17.9754 18.989Z" fill="#F1F2F3"/>
<path d="M61.4025 31.5258C63.4528 31.5258 65.2839 30.8527 66.5178 29.545L65.5822 28.6412C64.4477 29.7758 63.0545 30.2566 61.4619 30.2566C58.098 30.2566 55.5703 27.872 55.5703 24.6796C55.5703 21.4874 58.098 19.1027 61.4619 19.1027C63.0545 19.1027 64.4477 19.5835 65.5822 20.6989L66.5178 19.795C65.2839 18.4874 63.4528 17.8335 61.4223 17.8335C57.2223 17.8335 54.1172 20.7374 54.1172 24.6796C54.1172 28.622 57.2223 31.5258 61.4025 31.5258ZM69.3231 31.4104H77.0265V30.2566H70.7564V20.545H69.3231V31.4104ZM86.5972 20.545H85.1238L81.2622 26.545L77.4006 20.545H75.8679L80.526 27.8335V31.4104H81.9391V27.872L86.5972 20.545ZM100.862 31.4104L100.842 20.545H99.6085L94.8509 28.3335L90.074 20.545H88.8396V31.4104H90.2131V23.1604L94.5125 30.045H95.1695L99.469 23.045V31.4104H100.862ZM106.485 30.2566V26.4681H112.297V25.3335H106.485V21.6989H112.994V20.545H105.052V31.4104H113.233V30.2566H106.485ZM124.587 20.545V29.0258L117.52 20.545H116.326V31.4104H117.759V22.9296L124.826 31.4104H126.02V20.545H124.587ZM131.639 30.2566V26.4681H137.451V25.3335H131.639V21.6989H138.148V20.545H130.205V31.4104H138.387V30.2566H131.639Z" fill="white" stroke="white"/>
<defs>
<linearGradient id="paint0_linear_215_427" x1="0.550975" y1="7.59507" x2="45.683" y2="13.5811" gradientUnits="userSpaceOnUse">
<stop stop-color="#00B3FF"/>
<stop offset="0.532103" stop-color="#52226F"/>
<stop offset="1" stop-color="#C40656"/>
</linearGradient>
<linearGradient id="paint1_linear_215_427" x1="2.76616" y1="-1.33194" x2="47.9193" y2="4.655" gradientUnits="userSpaceOnUse">
<stop stop-color="#00B3FF"/>
<stop offset="0.532103" stop-color="#52226F"/>
<stop offset="1" stop-color="#C40656"/>
</linearGradient>
</defs>
</svg>
